<?xml version="1.0" encoding="utf-8"?>
<!-- Generator: Adobe Illustrator 16.0.4, SVG Export Plug-In . SVG Version: 6.00 Build 0)  -->
<!DOCTYPE svg PUBLIC "-//W3C//DTD SVG 1.1//EN" "http://www.w3.org/Graphics/SVG/1.1/DTD/svg11.dtd">
<svg version="1.1" id="Layer_1" xmlns="http://www.w3.org/2000/svg" xmlns:xlink="http://www.w3.org/1999/xlink" x="0px" y="0px"
	 width="478px" height="610px" viewBox="66.5 15.5 478 610" enable-background="new 66.5 15.5 478 610" xml:space="preserve">
<g>
	<path d="M536.339,13.5H75.662c-4.615,0-8.342,3.733-8.342,8.342v47.062v548.248c0,4.614,3.727,8.342,8.342,8.342h460.67
		c4.621,0.006,8.348-3.722,8.348-8.336V68.911V21.848C544.68,17.233,540.953,13.5,536.339,13.5z M83.997,335.388V289.75h54.48
		v45.637H83.997z M138.477,339.58v45.649h-54.48V339.58H138.477z M83.997,285.552v-45.661h54.48v45.661H83.997z M83.997,235.705
		v-45.643h54.48v45.643H83.997z M83.997,389.427h54.48v45.643h-54.48V389.427z M146.85,389.427h381.153v45.643H146.85V389.427
		L146.85,389.427z M146.85,385.229V339.58h381.153v45.649H146.85z M146.85,335.388V289.75h381.153v45.637H146.85z M146.85,285.552
		v-45.661h381.153v45.661H146.85z M146.85,235.705v-45.643h381.153v45.643H146.85z M146.85,185.87v-45.649h381.153v45.649H146.85z
		 M138.477,185.87h-54.48v-45.649h54.48V185.87z M83.997,439.256h54.48v45.649h-54.48V439.256z M146.85,439.256h381.153v45.649
		H146.85V439.256L146.85,439.256z M528.003,136.028H146.85V77.252h381.153V136.028z M138.477,136.028h-54.48V77.252h54.48V136.028z
		 M83.997,489.104h54.48v45.649h-54.48V489.104z M146.85,489.104h381.153v45.649H146.85V489.104L146.85,489.104z M83.997,30.189
		h444.012v30.374H83.997V30.189z M83.997,538.938h54.48v69.872h-54.48V538.938z M146.85,608.811v-69.872h381.153v69.872H146.85z"/>
	<path d="M108.704,496.674c-8.47,0-15.343,6.842-15.343,15.264c0,8.402,6.873,15.245,15.343,15.245
		c8.464,0,15.349-6.843,15.349-15.245C124.052,503.517,117.167,496.674,108.704,496.674z M108.704,518.798
		c-3.837,0-6.971-3.078-6.971-6.86c0-3.795,3.133-6.879,6.971-6.879c3.843,0,6.977,3.084,6.977,6.879
		C115.674,515.72,112.547,518.798,108.704,518.798z"/>
	<path d="M108.704,396.991c-8.47,0-15.343,6.843-15.343,15.251c0,8.415,6.873,15.258,15.343,15.258
		c8.464,0,15.349-6.843,15.349-15.258C124.052,403.834,117.167,396.991,108.704,396.991z M108.704,419.115
		c-3.837,0-6.971-3.084-6.971-6.873c0-3.782,3.133-6.866,6.971-6.866c3.843,0,6.977,3.084,6.977,6.866
		C115.674,416.031,112.547,419.115,108.704,419.115z"/>
	<path d="M108.704,247.474c-8.47,0-15.343,6.842-15.343,15.257c0,8.409,6.873,15.251,15.343,15.251
		c8.464,0,15.349-6.842,15.349-15.251S117.167,247.474,108.704,247.474z M108.704,269.604c-3.837,0-6.971-3.084-6.971-6.867
		c0-3.788,3.133-6.873,6.971-6.873c3.843,0,6.977,3.084,6.977,6.873C115.674,266.519,112.547,269.604,108.704,269.604z"/>
	<path d="M108.704,178.306c8.464,0,15.349-6.842,15.349-15.257s-6.885-15.257-15.349-15.257c-8.47,0-15.343,6.842-15.343,15.257
		S100.233,178.306,108.704,178.306z M108.704,156.176c3.843,0,6.977,3.084,6.977,6.873c0,3.788-3.133,6.873-6.977,6.873
		c-3.837,0-6.971-3.084-6.971-6.873C101.733,159.26,104.866,156.176,108.704,156.176z"/>
</g>
</svg>
