<?xml version="1.0" encoding="utf-8"?>
<!-- Generator: Adobe Illustrator 16.0.4, SVG Export Plug-In . SVG Version: 6.00 Build 0)  -->
<!DOCTYPE svg PUBLIC "-//W3C//DTD SVG 1.1//EN" "http://www.w3.org/Graphics/SVG/1.1/DTD/svg11.dtd">
<svg version="1.1" id="Layer_1" xmlns="http://www.w3.org/2000/svg" xmlns:xlink="http://www.w3.org/1999/xlink" x="0px" y="0px"
	 width="429px" height="592px" viewBox="91.5 10.5 429 592" enable-background="new 91.5 10.5 429 592" xml:space="preserve">
<path d="M515.151,213.28L346.324,25.953l-13.09-14.798l-16.861,10.435l-116.396,71.47l-3.323,2.062l-2.509,3.03L97.449,214.015
	l-5.649,6.677v8.703v236.183v11.934l9.603,7.21l82.1,62.203l2.283,1.714l2.607,1.139l108.532,47.644l10.062,4.419l9.921-4.719
	l190.748-91.316l12.546-6.518v-15.172V229.4v-9.253L515.151,213.28z M191.378,442.315l60.992,58.269l-50.686,25.128L191.378,442.315
	z M132.479,242.124l60.074,32.265l49.357,174.304L189.72,345.417l0,0l0,0L132.479,242.124z M184.243,207.246l5.392,52.467
	l-59.254-31.372L184.243,207.246z M174.83,348.195l-58.55,105.05v-213.11L174.83,348.195z M189.292,423.71l-1.249-50.043
	l52.094,98.617L189.292,423.71z M267.615,497.444l-62.644-220.265l159.071,16.634l42.057,96.83l-2.179,136.072l0,0l-17.632,10.104
	L267.615,497.444z M405.988,242.975l42.369,91.622l-71.892-48.036L405.988,242.975z M415.896,379.977l-33.751-75.172l70.331,46.996
	L415.896,379.977z M419.526,392.346l39.951-30.772l36.298,123.826l-76.959,36.622L419.526,392.346z M465.12,349.389L465.12,349.389
	L465.12,349.389l-48.593-106.494l79.192,35.734v173.336L465.12,349.389z M495.72,265.453l-84.272-38.593l-4.455-96.347
	l88.728,98.881V265.453z M328.877,42.067l68.923,75.974l0,0l3.715,111.029l-36.059,52.779l-163.062-17.038l-7.76-65.545L214.2,111.4
	l0,0L328.877,42.067z M203.429,124.552l-19.015,69.725l-58.104,22.761L203.429,124.552z M122.4,465.62L122.4,465.62l54.125-96.696
	l1.089,56.06l-17.779,71.916l-37.938-31.279H122.4z M170.142,506.618l11.31-46.837l7.54,61.127L170.142,506.618z M306.588,575.432
	l-94.475-41.476l51.065-25.318l108.807,35.68L306.588,575.432z"/>
</svg>
